<svg width="48" height="48" fill="none" xmlns="http://www.w3.org/2000/svg"><path d="M24 5.156c-8.3 0-24 1.17-24 5.6v6.4c.002.57.307 1.095.8 1.378v1.022a2.4 2.4 0 002.4 2.4h.947a2.4 2.4 0 002.253 1.6h2.4c.413-.002.82-.112 1.177-.32A2.395 2.395 0 0012 24.356h3.2c.413-.002.82-.113 1.177-.32a2.394 2.394 0 002.023 1.12h4a2.383 2.383 0 001.6-.624c.437.4 1.008.622 1.6.624h4a2.394 2.394 0 002.023-1.12c.358.207.764.318 1.177.32H36a2.395 2.395 0 002.023-1.12c.358.208.763.318 1.177.32h2.4a2.4 2.4 0 002.253-1.6h.947a2.4 2.4 0 002.4-2.4v-1.022c.493-.284.798-.809.8-1.378v-6.4c0-4.43-15.7-5.6-24-5.6zm0 1.6c14.493 0 22.4 2.64 22.4 4v4.742a2.062 2.062 0 00-1.422-.535 2.378 2.378 0 00-1.426.48 3.12 3.12 0 00-2.84-1.579 3.887 3.887 0 00-2.872 1.276 3.422 3.422 0 00-3.088-1.629c-1.27 0-2.476.556-3.301 1.52A3.76 3.76 0 0028 13.156 4.801 4.801 0 0024 15.308a4.801 4.801 0 00-4-2.152 3.76 3.76 0 00-3.453 1.879 4.343 4.343 0 00-3.302-1.52 3.42 3.42 0 00-3.085 1.625 3.888 3.888 0 00-2.869-1.273 3.12 3.12 0 00-2.843 1.58 2.377 2.377 0 00-1.426-.48 2.063 2.063 0 00-1.422.53v-4.74c0-1.36 7.906-4 22.4-4zm-21.6 12.8v-2.134c0-.143.03-.859.622-.859.612.1 1.04.658.978 1.275v2.518h-.8a.8.8 0 01-.8-.8zm6.4 2.4H6.4a.8.8 0 01-.8-.8v-4a1.589 1.589 0 011.689-1.689 2.314 2.314 0 012.31 2.312v3.377a.8.8 0 01-.799.8zm6.4.8H12a.8.8 0 01-.8-.8v-4.8a1.954 1.954 0 012.045-2.045A2.759 2.759 0 0116 17.867v4.09a.8.8 0 01-.8.8zm7.2.8h-4a.8.8 0 01-.8-.8v-5.6a2.293 2.293 0 012.4-2.4 3.2 3.2 0 013.2 3.2v4.8a.8.8 0 01-.8.8zm8-.8a.8.8 0 01-.8.8h-4a.8.8 0 01-.8-.8v-4.8a3.2 3.2 0 013.2-3.2 2.292 2.292 0 012.4 2.4v5.6zm6.4-.8a.8.8 0 01-.8.8h-3.2a.8.8 0 01-.8-.8v-4.089a2.759 2.759 0 012.755-2.756 1.954 1.954 0 012.045 2.045v4.8zm5.6-.8a.8.8 0 01-.8.8h-2.4a.8.8 0 01-.8-.8V17.78a2.314 2.314 0 012.311-2.312 1.59 1.59 0 011.689 1.69v4zm3.2-1.6a.8.8 0 01-.8.8H44v-2.518a1.173 1.173 0 01.978-1.275c.593 0 .622.716.622.86v2.133zM.8 31.142v6.18c0 4.298 15.177 5.434 23.2 5.434 8.025 0 23.2-1.136 23.2-5.434v-6.18a1.567 1.567 0 00-.83-1.378c.019-.132.03-.266.03-.4v-1.391a2.347 2.347 0 00-2.344-2.344h-.11a2.34 2.34 0 00-1.674.706 3.11 3.11 0 00-2.191-.903h-.96a3.114 3.114 0 00-2.417 1.159 3.072 3.072 0 00-1.42-.359H33.52a3.107 3.107 0 00-2.663 1.52 3.09 3.09 0 00-1.971-.72h-2.566A3.096 3.096 0 0024 28.084a3.096 3.096 0 00-2.32-1.052h-2.56a3.089 3.089 0 00-1.97.72 3.107 3.107 0 00-2.664-1.52h-1.766a3.071 3.071 0 00-1.42.358 3.115 3.115 0 00-2.42-1.158h-.96c-.821 0-1.61.325-2.192.903a2.34 2.34 0 00-1.673-.706h-.11A2.347 2.347 0 001.6 27.973v1.389c.001.134.011.267.03.4-.51.272-.83.802-.83 1.38zm42.4-3.17c.001-.41.335-.742.746-.743h.11c.41 0 .744.333.745.744v1.389c0 .144-.03.86-.622.86a1.173 1.173 0 01-.978-1.275v-.974zm-4.08-.94h.96c.84 0 1.52.68 1.52 1.52v3.084a1.537 1.537 0 01-1.688 1.6h-.111a2.138 2.138 0 01-1.4-.515v-3.372a3.09 3.09 0 00-.502-1.68c.28-.397.735-.634 1.222-.637zM32 29.352c0-.84.681-1.52 1.52-1.52h1.76c.84 0 1.52.68 1.52 1.52v3.863a1.892 1.892 0 01-2.044 1.941h-.123A2.64 2.64 0 0132 32.525v-3.176.003zm-5.68-.72h2.56c.84 0 1.52.68 1.52 1.52v4.635c0 .415 0 1.52-2.4 1.52h-.137a3.067 3.067 0 01-3.062-3.07v-3.088a1.52 1.52 0 011.52-1.517zm-7.2 0h2.56c.84 0 1.52.68 1.52 1.52v3.084a3.065 3.065 0 01-3.062 3.062H20c-2.4 0-2.4-1.103-2.4-1.52v-4.63a1.52 1.52 0 011.52-1.516zm-4.633-.8c.84 0 1.52.68 1.52 1.52v3.176a2.64 2.64 0 01-2.64 2.628h-.122a1.891 1.891 0 01-2.045-1.945V29.35c0-.84.681-1.52 1.52-1.52l1.767.003zm-6.56-.8h.96c.486.002.94.238 1.222.634a3.09 3.09 0 00-.502 1.68v3.37c-.389.337-.886.521-1.4.52h-.112a1.537 1.537 0 01-1.694-1.6v-3.088a1.52 1.52 0 011.52-1.516h.006zm-4.726.94c0-.41.334-.743.744-.743h.11c.412 0 .745.333.746.744v.974a1.173 1.173 0 01-.978 1.275c-.592 0-.622-.72-.622-.86v-1.39zm.622 3.85a2.34 2.34 0 00.978-.218v.032a3.14 3.14 0 003.288 3.2H8.2a3.788 3.788 0 001.614-.37 3.404 3.404 0 003.431 2.29h.123c1.018-.004 2-.378 2.763-1.052.29 1 1.2 2.195 3.87 2.195h.137a4.661 4.661 0 003.863-2.052 4.66 4.66 0 003.862 2.054h.138c2.672 0 3.579-1.194 3.87-2.195a4.2 4.2 0 002.762 1.05h.123a3.402 3.402 0 003.43-2.287 3.78 3.78 0 001.615.37h.111a3.138 3.138 0 003.289-3.2v-.037c.306.142.64.217.978.218a2.06 2.06 0 001.421-.532v6.034c0 1.301-7.623 3.834-21.6 3.834-13.976 0-21.6-2.533-21.6-3.834l-.027-6.063c.391.37.912.572 1.45.563z" fill="#00A99D"/></svg>