<svg width="48" height="48" fill="none" xmlns="http://www.w3.org/2000/svg"><g clip-path="url(#clip0)" fill="#00A99D"><path d="M36.184 4.405a.938.938 0 100 1.876.938.938 0 000-1.876z"/><path d="M37.043.75C31.164-1.135 26.25.974 23.998 2.274 21.745.974 16.832-1.136 10.952.75 3.164 3.248-.488 14.62 5.757 23.796c2.958 4.345 3.353 7.697 3.772 11.246.306 2.598.622 5.284 1.945 8.424.889 2.112 2.146 4.527 4.006 4.526h.05c1.496-.035 2.702-1.519 3.908-4.81.615-1.678 1.009-3.657 1.39-5.571.686-3.446 1.395-7.009 3.176-7.021h.01c1.762 0 2.47 3.564 3.154 7.01.381 1.92.775 3.907 1.39 5.582 1.208 3.296 2.413 4.782 3.907 4.817l.051.001c1.856 0 3.115-2.419 4.006-4.534 1.263-3 1.594-5.68 1.915-8.272.45-3.648.876-7.094 3.809-11.408C48.563 14.492 44.7 3.205 37.042.75zm3.652 21.982c-3.187 4.688-3.661 8.524-4.12 12.232-.318 2.578-.619 5.013-1.782 7.774-1.38 3.276-2.18 3.387-2.28 3.387h-.003c-.036-.001-.9-.062-2.192-3.588-.564-1.539-.944-3.452-1.31-5.302-.413-2.076-.802-4.038-1.444-5.569-.82-1.959-2.014-2.952-3.547-2.952h-.026c-1.54.011-2.737 1.012-3.56 2.975-.64 1.53-1.03 3.486-1.442 5.556-.367 1.844-.746 3.751-1.31 5.292-1.291 3.52-2.156 3.58-2.192 3.58-.084.002-.893-.075-2.285-3.378-1.22-2.896-1.507-5.335-1.811-7.916-.426-3.617-.867-7.357-4.084-12.082C1.678 14.47 5.071 4.606 11.524 2.536c5.612-1.8 10.244.538 11.975 1.626a.937.937 0 00.998 0C26.228 3.074 30.86.737 36.47 2.536c6.581 2.11 9.74 12.082 4.224 20.196z"/><path d="M40.976 9.706a10.154 10.154 0 00-1.2-2.418.937.937 0 10-1.548 1.057c.397.582.725 1.246.975 1.972.934 2.711.69 5.875-.669 8.68a.937.937 0 101.688.818c1.574-3.248 1.849-6.933.754-10.11zM20.59 12.825l-3.774-1.258-1.258-3.775a.938.938 0 00-1.78 0l-1.257 3.774-3.774 1.258a.938.938 0 000 1.78l3.774 1.257 1.258 3.774a.938.938 0 001.778 0l1.258-3.774 3.775-1.258a.938.938 0 000-1.778zm-4.812 1.406a.937.937 0 00-.593.593l-.517 1.55-.517-1.55a.937.937 0 00-.593-.593l-1.55-.517 1.55-.517c.28-.093.5-.313.593-.593l.517-1.55.517 1.55c.093.28.313.5.593.593l1.55.517-1.55.517z"/></g><defs><clipPath id="clip0"><path fill="#fff" d="M0 0h48v48H0z"/></clipPath></defs></svg>