<svg width="31" height="31" fill="none" xmlns="http://www.w3.org/2000/svg"><path d="M23.228 13.926a1.2 1.2 0 001.189-1.211 1.2 1.2 0 00-1.19-1.211 1.2 1.2 0 00-1.188 1.21 1.2 1.2 0 001.189 1.212z" fill="#fff"/><path d="M25.962 2.422h-1.545V1.21A1.2 1.2 0 0023.228 0a1.2 1.2 0 00-1.189 1.21v1.212H16.63V1.21A1.2 1.2 0 0015.443 0a1.2 1.2 0 00-1.189 1.21v1.212h-5.35V1.21A1.2 1.2 0 007.716 0a1.2 1.2 0 00-1.189 1.21v1.212H5.04C2.418 2.422.285 4.595.285 7.266v18.89C.285 28.827 2.418 31 5.04 31h9.094a1.2 1.2 0 001.189-1.21 1.2 1.2 0 00-1.189-1.212H5.04c-1.31 0-2.377-1.086-2.377-2.422V7.266c0-1.336 1.066-2.422 2.377-2.422h1.486v1.21a1.2 1.2 0 001.189 1.212 1.2 1.2 0 001.189-1.211V4.844h5.349v1.21a1.2 1.2 0 001.189 1.212 1.2 1.2 0 001.189-1.211V4.844h5.408v1.21a1.2 1.2 0 001.19 1.212 1.2 1.2 0 001.188-1.211V4.844h1.545c1.311 0 2.378 1.086 2.378 2.422v6.902a1.2 1.2 0 001.189 1.21 1.2 1.2 0 001.188-1.21V7.266c0-2.671-2.133-4.844-4.755-4.844z" fill="#fff"/><path d="M23.526 16.348c-3.966 0-7.192 3.286-7.192 7.326 0 4.04 3.226 7.326 7.192 7.326s7.192-3.287 7.192-7.326c0-4.04-3.226-7.326-7.192-7.326zm0 12.23c-2.655 0-4.814-2.2-4.814-4.904 0-2.704 2.16-4.904 4.814-4.904 2.655 0 4.814 2.2 4.814 4.904 0 2.704-2.16 4.904-4.814 4.904z" fill="#fff"/><path d="M25.248 22.463h-.535V21.19a1.2 1.2 0 00-1.188-1.21 1.2 1.2 0 00-1.19 1.21v2.483a1.2 1.2 0 001.19 1.21h1.723a1.2 1.2 0 001.19-1.21 1.2 1.2 0 00-1.19-1.211zM18.058 13.926a1.2 1.2 0 001.189-1.211 1.2 1.2 0 00-1.19-1.211 1.2 1.2 0 00-1.188 1.21 1.2 1.2 0 001.189 1.212zM12.886 19.193a1.2 1.2 0 001.189-1.21 1.2 1.2 0 00-1.189-1.212 1.2 1.2 0 00-1.189 1.211 1.2 1.2 0 001.189 1.211zM7.714 13.926a1.2 1.2 0 001.189-1.211 1.2 1.2 0 00-1.189-1.211 1.2 1.2 0 00-1.189 1.21 1.2 1.2 0 001.19 1.212zM7.714 19.193a1.2 1.2 0 001.189-1.21 1.2 1.2 0 00-1.189-1.212 1.2 1.2 0 00-1.189 1.211 1.2 1.2 0 001.19 1.211zM7.714 24.46a1.2 1.2 0 001.189-1.21 1.2 1.2 0 00-1.189-1.21 1.2 1.2 0 00-1.189 1.21 1.2 1.2 0 001.19 1.21zM12.886 24.46a1.2 1.2 0 001.189-1.21 1.2 1.2 0 00-1.189-1.21 1.2 1.2 0 00-1.189 1.21 1.2 1.2 0 001.189 1.21zM12.886 13.926a1.2 1.2 0 001.189-1.211 1.2 1.2 0 00-1.189-1.211 1.2 1.2 0 00-1.189 1.21 1.2 1.2 0 001.189 1.212z" fill="#fff"/></svg>