<svg width="22" height="22" fill="none" xmlns="http://www.w3.org/2000/svg"><path d="M3.385 9.308V11h9.08l1.074-1.073v-.62H3.385zM3.385 12.692v1.693H9.08l1.692-1.693H3.385zM8.462 16.077H3.385v1.692h5.077v-1.692zM20.895 7.356L19.698 6.16a.846.846 0 00-1.196 0l-.893.892 2.394 2.394.892-.893a.846.846 0 000-1.197z" fill="#00A99D"/><path d="M17.013 7.652c-3.038 3.038-3.933 3.93-7.705 7.702v2.415c2.037 0 1.521.001 2.375-.003l.542-.542 3.006-3.005v6.089H1.692V5.077h1.693v1.692h10.154V5.077h1.692v3.158l1.692-1.692V5.077c0-.935-.757-1.692-1.692-1.692h-2.35a2.531 2.531 0 00-1.178-.748 1.164 1.164 0 01-.802-.801 2.54 2.54 0 00-4.88 0c-.112.39-.412.689-.802.801a2.53 2.53 0 00-1.178.748H1.692C.758 3.385 0 4.142 0 5.077v15.23C0 21.243.758 22 1.692 22h13.539c.935 0 1.692-.758 1.692-1.692v-7.78l2.483-2.482-2.393-2.394zm-5.682 9.27l-1.16.001h-.017v-1.218l.276-.276 1.196 1.197-.295.295zM8.472 1.691a.846.846 0 110 1.693.846.846 0 010-1.693z" fill="#00A99D"/></svg>