<svg width="32" height="26" fill="none" xmlns="http://www.w3.org/2000/svg"><path d="M29.142 25.142c.72 0 1.343-.238 1.872-.707l-9.066-9.066-.627.451c-.679.5-1.23.89-1.652 1.17-.423.28-.985.566-1.687.857-.703.292-1.358.437-1.965.437h-.035c-.608 0-1.262-.145-1.965-.437-.702-.292-1.265-.577-1.687-.857-.423-.28-.973-.67-1.652-1.17a75.85 75.85 0 00-.626-.453L.984 24.435c.53.47 1.154.707 1.873.707h26.285zM1.804 9.66A9.467 9.467 0 010 8.108V21.9l7.99-7.991a617.28 617.28 0 00-6.186-4.25zM30.214 9.66a524.579 524.579 0 00-6.202 4.253l7.987 7.988V8.107a9.854 9.854 0 01-1.785 1.554z" fill="#fff"/><path d="M29.142 0H2.857C1.94 0 1.235.31.74.928.247 1.548 0 2.321 0 3.25 0 4 .327 4.812.982 5.687c.655.875 1.351 1.563 2.09 2.063.404.285 1.624 1.134 3.66 2.544a1199.306 1199.306 0 014.678 3.26 247.465 247.465 0 01.76.545c.386.279.708.505.964.678.255.173.565.366.928.58.363.214.706.375 1.027.482.322.107.62.16.893.16h.036c.273 0 .57-.053.892-.16a5.403 5.403 0 001.027-.482c.363-.214.672-.408.929-.58.256-.173.577-.4.964-.679a116.933 116.933 0 01.76-.545l1.806-1.256 6.55-4.547a8.495 8.495 0 002.179-2.197c.582-.857.874-1.755.874-2.696A2.74 2.74 0 0031.151.84C30.585.28 29.916 0 29.141 0z" fill="#fff"/></svg>