<svg width="21" height="21" fill="none" xmlns="http://www.w3.org/2000/svg"><path d="M20.534 18.25l-4.33-4.33c1.044-1.505 1.566-3.184 1.566-5.035a8.726 8.726 0 00-.7-3.452 8.88 8.88 0 00-1.894-2.84A8.882 8.882 0 0012.336.7 8.731 8.731 0 008.886 0a8.73 8.73 0 00-3.452.7 8.881 8.881 0 00-2.84 1.894A8.882 8.882 0 00.7 5.434 8.73 8.73 0 000 8.884a8.73 8.73 0 00.7 3.451 8.884 8.884 0 001.894 2.84 8.888 8.888 0 002.84 1.893c1.097.467 2.248.7 3.45.7 1.852 0 3.53-.521 5.037-1.564l4.329 4.316a1.5 1.5 0 001.135.48c.446 0 .827-.158 1.142-.474.316-.316.473-.696.473-1.142 0-.446-.155-.825-.466-1.136zm-7.655-5.371c-1.106 1.107-2.437 1.66-3.994 1.66-1.557 0-2.888-.554-3.994-1.66-1.107-1.106-1.66-2.438-1.66-3.994 0-1.557.553-2.888 1.66-3.995 1.106-1.106 2.437-1.66 3.994-1.66 1.556 0 2.888.554 3.994 1.66 1.107 1.107 1.66 2.438 1.66 3.995 0 1.556-.553 2.888-1.66 3.994z" fill="#fff"/><path d="M12.517 8.077H9.69V5.25c0-.11-.04-.204-.12-.284a.388.388 0 00-.284-.12h-.808c-.109 0-.204.04-.284.12a.388.388 0 00-.12.284v2.827H5.249c-.11 0-.204.04-.284.12a.388.388 0 00-.12.283v.808c0 .11.04.204.12.284.08.08.174.12.284.12h2.827v2.827c0 .11.04.204.12.284.08.08.174.12.283.12h.808c.11 0 .204-.04.284-.12.08-.08.12-.175.12-.284V9.692h2.827c.11 0 .204-.04.284-.12.08-.08.12-.175.12-.284V8.48c0-.109-.04-.204-.12-.284a.388.388 0 00-.284-.12z" fill="#fff"/></svg>