<svg width="32" height="33" fill="none" xmlns="http://www.w3.org/2000/svg"><path fill="url(#paint0_radial)" d="M0 0h32v32.194H0z"/><path fill="url(#paint1_radial)" d="M0 0h32v32.194H0z"/><path d="M19.492 7.404h-6.985c-2.838 0-5.148 2.324-5.148 5.18v7.026c0 2.856 2.31 5.18 5.148 5.18h6.985c2.838 0 5.147-2.324 5.147-5.18v-7.027c0-2.855-2.309-5.179-5.147-5.179zM22.9 19.61c0 1.895-1.526 3.43-3.41 3.43h-6.984c-1.883 0-3.41-1.535-3.41-3.43v-7.027c0-1.894 1.527-3.43 3.41-3.43h6.985c1.883 0 3.409 1.536 3.409 3.43v7.027z" fill="#fff"/><path d="M16 11.6c-2.465 0-4.47 2.018-4.47 4.497 0 2.48 2.005 4.496 4.47 4.496 2.464 0 4.469-2.017 4.469-4.496 0-2.48-2.005-4.497-4.47-4.497zm0 7.244a2.74 2.74 0 01-2.732-2.747A2.74 2.74 0 0116 13.349a2.74 2.74 0 012.731 2.748A2.74 2.74 0 0116 18.844zM20.477 12.712c.592 0 1.071-.483 1.071-1.078 0-.595-.48-1.077-1.07-1.077-.592 0-1.072.482-1.072 1.077s.48 1.078 1.071 1.078z" fill="#fff"/><defs><radialGradient id="paint0_radial" cx="0" cy="0" r="1" gradientUnits="userSpaceOnUse" gradientTransform="matrix(0 -31.9072 29.4969 0 8.5 34.674)"><stop stop-color="#FD5"/><stop offset=".1" stop-color="#FD5"/><stop offset=".5" stop-color="#FF543E"/><stop offset="1" stop-color="#C837AB"/></radialGradient><radialGradient id="paint1_radial" cx="0" cy="0" r="1" gradientUnits="userSpaceOnUse" gradientTransform="rotate(78.747 -4.093 -2.106) scale(14.2593 58.4495)"><stop stop-color="#3771C8"/><stop offset=".128" stop-color="#3771C8"/><stop offset="1" stop-color="#60F" stop-opacity="0"/></radialGradient></defs></svg>