<svg width="38" height="31" fill="none" xmlns="http://www.w3.org/2000/svg"><path d="M15.925 23.301c-2.34 0-4.54-.911-6.195-2.566a8.705 8.705 0 01-2.567-6.195V12.62H5.945A5.952 5.952 0 000 18.566v3.682a5.952 5.952 0 005.945 5.945h.703l1.885 2.39a1.091 1.091 0 001.715 0l1.884-2.39h3.556c2.918 0 5.35-2.114 5.85-4.892h-5.613z" fill="#FFFDFC"/><path d="M30.689 0H15.926a6.578 6.578 0 00-6.578 6.578v7.962a6.578 6.578 0 006.578 6.578h7.095l2.141 2.716a1.092 1.092 0 001.715 0l2.141-2.716h1.67a6.578 6.578 0 006.579-6.578V6.578A6.578 6.578 0 0030.689 0zm-.747 14.274h-13.27a1.092 1.092 0 110-2.184h13.27a1.092 1.092 0 110 2.184zm0-5.246h-13.27a1.092 1.092 0 110-2.183h13.27a1.092 1.092 0 110 2.183z" fill="#FFFDFC"/></svg>