<svg width="32" height="59" fill="none" xmlns="http://www.w3.org/2000/svg"><g clip-path="url(#clip0)" fill="#00A99D"><path d="M31.54 6.89a11.704 11.704 0 00-1.15-2.81A8.29 8.29 0 0023.16 0a7.7 7.7 0 00-1.46.13l-5.7 1-5.69-1A7.84 7.84 0 008.83 0 8.28 8.28 0 001.6 4.1 12.8 12.8 0 000 10.55a13.56 13.56 0 00.81 4.63l.24.65c.69 1.91 1.41 3.89 2 5.87l.21.74v9.22a1 1 0 001 1h2.03l2.58 2V50.1a5.11 5.11 0 001.71 3.82l4.75 4.22h.07l.1.06H16.33l.1-.06h.11l4.74-4.22A5.08 5.08 0 0023 50.1V34.6l2.57-2h2.09a1 1 0 001-1v-9.15l.15-.52c.57-1.94 1.27-3.89 1.95-5.77l.36-1c.56-1.474.857-3.034.88-4.61a14.392 14.392 0 00-.46-3.66zm-16 29.41a15.639 15.639 0 015.56 2.35h.05v3.49a20.16 20.16 0 00-5.25-1.87l-5.07-1.06v-3.89l4.71.98zm4.55 16.16l-.11.09a20.465 20.465 0 00-4.08-1.33l-5.07-1v-3.17l4.67 1a17.07 17.07 0 012.94.87c.936.363 1.84.804 2.7 1.32a3.15 3.15 0 01-1.06 2.22h.01zm-.94-5.38a19.551 19.551 0 00-3.25-1l-5.07-1.06v-3.78l4.67 1a18.379 18.379 0 015.65 2.21V48a18.915 18.915 0 00-2.01-.92h.01zm-7.35 5.29l3.7.77c.975.207 1.931.49 2.86.85L16 56.1l-4.1-3.64-.1-.09zm9.73-19a1 1 0 00-.38.78v2.26a17.347 17.347 0 00-5.21-2l-5.68-1.21-.74-.56h12.92l-.91.73zm5.25-2.65H5.18v-7.44h21.59l.01 7.44zm2.58-16.17l-.35 1c-.69 1.89-1.4 3.85-2 5.83H5v-.17c-.58-2-1.31-4.05-2-6l-.23-.64a11.73 11.73 0 01-.7-4 10.86 10.86 0 011.23-5.5A6.34 6.34 0 018.84 2a6.88 6.88 0 011.13.1l5.86 1a1 1 0 00.34 0l5.87-1a6.88 6.88 0 011.13-.1 6.33 6.33 0 015.52 3.1 9.683 9.683 0 011 2.35c.27 1.028.404 2.087.4 3.15-.02 1.34-.27 2.665-.74 3.92l.01.03z"/><path d="M7.78 28.94h8.88a1 1 0 000-2h-7.9v-1.7a1 1 0 10-1.95 0V28a1 1 0 00.97.94zM26.8 6.17a6.17 6.17 0 00-6.08-1.95l-4.27.93a1 1 0 00-.74 1.17 1 1 0 001.16.74l4.27-.94a4.25 4.25 0 014.17 1.31c.07.09.15.18.22.28.582.85.882 1.86.86 2.89a1 1 0 002 0 6.8 6.8 0 00-1.24-4c-.15-.18-.25-.31-.35-.43z"/></g><defs><clipPath id="clip0"><path fill="#fff" d="M0 0h32v58.39H0z"/></clipPath></defs></svg>