<svg width="57" height="39" fill="none" xmlns="http://www.w3.org/2000/svg"><g clip-path="url(#clip0)" fill="#fff"><path d="M8.05 10.14c.42 1.14.84 2.33 1.18 3.5l.15.53a.999.999 0 00.57.65 1 1 0 00.87 0 7.228 7.228 0 012.18-.79 7.33 7.33 0 013.75.35 1.007 1.007 0 00.69-1.89 9.31 9.31 0 00-4.78-.4c-.57.095-1.13.245-1.67.45-.32-1-.69-2.06-1.05-3.05l-.13-.4a6.6 6.6 0 01-.39-2.24 6.08 6.08 0 01.75-3.08 3.38 3.38 0 013-1.66c.202 0 .403.02.6.06l3.52.62a1 1 0 00.35 0l3.53-.62c.18-.045.365-.072.55-.08a3.37 3.37 0 013 1.65c.218.427.38.881.48 1.35.156.58.233 1.18.23 1.78-.013.76-.159 1.51-.43 2.22-.13.34-.23.63-.34.91-.31.84-.58 1.56-1.08 3.23-.05.17-.09.31-.12.4a1 1 0 00.7 1.24c.09.015.181.015.27 0a1 1 0 001-.73l.11-.38c.48-1.59.72-2.26 1-3.1l.34-.93a8.55 8.55 0 00.51-2.92 9.005 9.005 0 00-.29-2.3 7.574 7.574 0 00-.73-1.79A5.4 5.4 0 0021.72.09c-.318 0-.636.027-.95.08l-3.35.6-3.33-.59a5.071 5.071 0 00-1-.09 5.39 5.39 0 00-4.7 2.67 8.13 8.13 0 00-1 4.08 8.55 8.55 0 00.51 2.92l.15.38zM31.37 10.7c.32.84.56 1.5 1 3.09l.11.37a1 1 0 001.24.69 1.002 1.002 0 00.69-1.26l-.11-.39c-.5-1.65-.77-2.38-1.08-3.22-.11-.27-.21-.57-.34-.91a6.56 6.56 0 01-.39-2.24 7.373 7.373 0 01.26-1.74c.13-.452.311-.889.54-1.3a3.37 3.37 0 013-1.65 3 3 0 01.6.06l3.52.62a1 1 0 00.35 0l3.52-.62a2.93 2.93 0 01.56-.11 3.38 3.38 0 012.95 1.66c.519.942.777 2.005.75 3.08a6.6 6.6 0 01-.39 2.26l-.15.38c-.36 1-.73 2-1 3a8.666 8.666 0 00-1.71-.38 9.27 9.27 0 00-4.77.44 1.005 1.005 0 10.68 1.89 7.35 7.35 0 013.8-.39c.766.13 1.506.384 2.19.75.145.078.306.12.47.12.135 0 .267-.027.39-.08a1 1 0 00.58-.65l.15-.53c.33-1.17.76-2.35 1.17-3.49l.05-.39a8.56 8.56 0 00.52-2.92 8.13 8.13 0 00-1-4.08A5.39 5.39 0 0044.83.09a5.8 5.8 0 00-.95.08l-3.35.6L37.2.18a5.07 5.07 0 00-1-.09 5.4 5.4 0 00-4.69 2.66 7.261 7.261 0 00-.73 1.78c-.199.754-.297 1.53-.29 2.31A8.55 8.55 0 0031 9.76c.15.33.27.65.37.94zM52.65 19.14l-.65-.05a10.371 10.371 0 00-4.17.75 5.37 5.37 0 00-3.76-1.47 5.078 5.078 0 00-.86.07l-3 .46-3.05-.46a4.916 4.916 0 00-.86-.07 5.41 5.41 0 00-3.66 1.37 7.71 7.71 0 00-7.7 0 5.41 5.41 0 00-3.66-1.38 4.918 4.918 0 00-.86.07l-3.05.46-3-.46a4.916 4.916 0 00-.86-.07 5.4 5.4 0 00-3.66 1.38A8.86 8.86 0 004 18.7h-.11A4.85 4.85 0 000 23.52v12.93a1 1 0 102 0V23.52a2.84 2.84 0 012.3-2.83 6.75 6.75 0 014.34.74 6.22 6.22 0 00-.48 2.42 6.3 6.3 0 001.08 3.49l.92 1.37a3.5 3.5 0 01.61 1.66 12 12 0 002 5.36l.61.91a1.92 1.92 0 001.59.82 1.819 1.819 0 001.88-1.76v-1.5c.002-.555.11-1.105.32-1.62l.2-.49.19.45a4.21 4.21 0 01.37 1.73v1.43a1.82 1.82 0 001.88 1.76 1.919 1.919 0 001.59-.82l.61-.91a11.728 11.728 0 002-5.36 3.501 3.501 0 01.61-1.66l.92-1.37a6.22 6.22 0 001.08-3.49 6.058 6.058 0 00-.48-2.43 5.67 5.67 0 015.4 0 6.062 6.062 0 00-.54 2.43 6.22 6.22 0 001.08 3.49l.92 1.37c.338.494.548 1.065.61 1.66a11.73 11.73 0 002 5.36l.61.91a1.9 1.9 0 001.59.82 1.819 1.819 0 001.88-1.76v-1.5a4.532 4.532 0 01.31-1.62l.2-.49.2.45c.237.546.36 1.135.36 1.73v1.43a1.83 1.83 0 001.88 1.76 1.92 1.92 0 001.6-.82l.6-.91a11.728 11.728 0 002-5.36c.067-.596.28-1.166.62-1.66l.91-1.37a6.288 6.288 0 00.63-5.76 8.082 8.082 0 013-.49c.167-.01.334-.01.5 0a2.87 2.87 0 012.5 2.93V37.9a1 1 0 102 0V24.02a4.9 4.9 0 00-4.35-4.88zM23.8 26.22l-.91 1.37a5.682 5.682 0 00-.95 2.57 9.708 9.708 0 01-1.63 4.45l-.4.59v-.93a6.338 6.338 0 00-.53-2.53l-.24-.56a2 2 0 00-3.63.05l-.24.6a6.251 6.251 0 00-.46 2.37v1l-.4-.59a9.71 9.71 0 01-1.63-4.45 5.68 5.68 0 00-.95-2.57l-.91-1.37a4.2 4.2 0 01-.74-2.37 3.942 3.942 0 01.63-2.23 3.182 3.182 0 012.65-1.22 3.39 3.39 0 01.55 0l3.2.48c.1.01.2.01.3 0l3.2-.48c.187-.015.374-.015.56 0a3.16 3.16 0 012.64 1.23 3.91 3.91 0 01.64 2.22 4.21 4.21 0 01-.75 2.37zm22.84 0l-.92 1.37a5.78 5.78 0 00-.94 2.57 9.619 9.619 0 01-1.64 4.45l-.39.59v-.93a6.338 6.338 0 00-.53-2.53l-.22-.56a2 2 0 00-3.62.05l-.24.6a6.251 6.251 0 00-.46 2.37v1l-.4-.59a9.891 9.891 0 01-1.64-4.45 5.66 5.66 0 00-.94-2.57l-.92-1.37a4.28 4.28 0 01-.78-2.37 4.001 4.001 0 01.64-2.23 3.18 3.18 0 012.64-1.22c.187-.015.374-.015.56 0l3.2.48c.1.01.2.01.3 0l3.19-.48c.19-.015.38-.015.57 0a3.16 3.16 0 012.64 1.23 3.91 3.91 0 01.63 2.22 4.28 4.28 0 01-.73 2.37z"/></g><defs><clipPath id="clip0"><path fill="#fff" d="M0 0h57v39H0z"/></clipPath></defs></svg>