<svg width="48" height="47" fill="none" xmlns="http://www.w3.org/2000/svg"><g clip-path="url(#clip0)" fill="#fff"><path d="M43.199 27.31v-1.22c0-1.291-1.075-2.337-2.4-2.337h-1.6c-1.323 0-2.397 1.042-2.4 2.33a89.861 89.861 0 00-4.8-.474v-1.077c0-1.29-1.075-2.337-2.4-2.337H28c-1.325 0-2.4 1.047-2.4 2.337v.792a105.739 105.739 0 00-3.2 0v-.792c0-1.29-1.074-2.337-2.4-2.337h-1.6c-1.325 0-2.4 1.047-2.4 2.337v1.076c-1.6.117-3.227.274-4.8.475-.003-1.288-1.076-2.33-2.4-2.33H7.2c-1.325 0-2.4 1.046-2.4 2.336v1.22C1.935 28.13 0 29.25 0 30.761v6.23c.002.554.307 1.065.8 1.341v.995c0 1.29 1.075 2.337 2.4 2.337h.947c.338.93 1.24 1.553 2.253 1.557h2.4c.413-.002.819-.11 1.176-.311A2.41 2.41 0 0012 44h3.2c.413-.002.819-.11 1.177-.312a2.41 2.41 0 002.022 1.09h4a2.422 2.422 0 001.6-.607 2.421 2.421 0 001.6.608h4a2.41 2.41 0 002.023-1.09c.358.201.764.309 1.177.31H36a2.41 2.41 0 002.023-1.09c.358.202.763.31 1.177.312h2.4c1.013-.004 1.915-.627 2.252-1.557h.948c1.325 0 2.4-1.046 2.4-2.337v-.995c.493-.276.798-.787.8-1.34v-6.23c0-1.513-1.935-2.634-4.8-3.453zm-4.8-1.22a.79.79 0 01.8-.78h1.6c.442 0 .8.35.8.78v.812a46.705 46.705 0 00-3.2-.595v-.218zm-11.2-1.558a.79.79 0 01.8-.78h1.6c.442 0 .8.35.8.78v.971c-1.102-.064-2.176-.11-3.2-.141v-.83zm-9.6 0a.79.79 0 01.8-.78H20c.442 0 .8.35.8.78v.83c-1.023.03-2.098.078-3.2.141v-.971zM6.4 26.089a.79.79 0 01.8-.778h1.6c.442 0 .8.348.8.778v.218c-1.12.171-2.198.37-3.2.595v-.813zm17.6.779c14.493 0 22.4 2.57 22.4 3.893v4.616a2.092 2.092 0 00-1.422-.52 2.423 2.423 0 00-1.426.467 3.14 3.14 0 00-2.84-1.537 3.938 3.938 0 00-2.872 1.242 3.446 3.446 0 00-3.087-1.586c-1.27 0-2.476.54-3.302 1.48-.706-1.192-2.04-1.897-3.45-1.825-1.61 0-3.113.788-4 2.094-.889-1.306-2.39-2.093-4-2.094-1.413-.072-2.748.635-3.454 1.828a4.393 4.393 0 00-3.302-1.48 3.445 3.445 0 00-3.084 1.583A3.939 3.939 0 007.29 33.79a3.139 3.139 0 00-2.843 1.537 2.422 2.422 0 00-1.426-.467 2.095 2.095 0 00-1.422.517v-4.616c0-1.323 7.906-3.893 22.4-3.893zM2.4 39.328V37.25c0-.14.03-.837.622-.837.611.097 1.04.64.978 1.24v2.452h-.8a.79.79 0 01-.8-.779zm6.4 2.336H6.4a.79.79 0 01-.8-.78v-3.892c-.03-.445.139-.88.462-1.195.323-.314.77-.478 1.226-.45 1.276.002 2.31 1.008 2.312 2.25v3.288a.79.79 0 01-.8.779zm6.4.778H12a.79.79 0 01-.8-.778v-4.672a1.874 1.874 0 01.569-1.437c.39-.38.925-.58 1.475-.554 1.522.002 2.754 1.202 2.756 2.683v3.98a.79.79 0 01-.8.778zm7.2.78h-4a.79.79 0 01-.8-.78v-5.45a2.199 2.199 0 01.668-1.686 2.327 2.327 0 011.731-.65c1.768 0 3.2 1.394 3.2 3.114v4.672a.79.79 0 01-.8.78zm7.999-.78a.79.79 0 01-.8.78h-4a.79.79 0 01-.8-.78V37.77c0-1.72 1.433-3.115 3.2-3.115a2.327 2.327 0 011.731.651 2.2 2.2 0 01.669 1.686v5.45zm6.4-.778a.79.79 0 01-.8.778h-3.2a.79.79 0 01-.8-.778v-3.98C32 36.203 33.233 35.003 34.754 35a1.981 1.981 0 011.476.554c.389.38.596.9.569 1.437v4.672zm5.6-.78a.79.79 0 01-.8.78h-2.4a.79.79 0 01-.8-.78v-3.287c.001-1.242 1.035-2.248 2.311-2.25.456-.029.903.136 1.227.45.323.315.491.75.462 1.195v3.893zm3.2-1.557a.79.79 0 01-.8.78h-.8v-2.452c-.062-.6.366-1.144.978-1.24.592 0 .622.7.622.836v2.076zM47.694-.247l.253-.639a.773.773 0 00-.46-1.007.807.807 0 00-1.035.448l-.252.64c-2.159 5.397-7.489 8.96-13.44 8.984H15.24C9.29 8.157 3.96 4.593 1.8-.805l-.252-.64a.807.807 0 00-1.035-.448.773.773 0 00-.46 1.007l.253.64C2.706 5.75 8.628 9.71 15.24 9.736h17.52C39.37 9.71 45.295 5.75 47.694-.247zM19.2 20.639a.79.79 0 00.8-.779v-5.907l1.034 1.007a.816.816 0 001.121-.01.764.764 0 00.01-1.091l-2.4-2.336c-.007-.008-.017-.01-.024-.016a.808.808 0 00-.235-.156c-.006 0-.015 0-.02-.005a.81.81 0 00-.253-.048.736.736 0 00-.08.005.767.767 0 00-.197.037.798.798 0 00-.32.183l-2.4 2.337a.764.764 0 00.01 1.091c.309.3.808.305 1.122.01l1.031-1.008v5.907c0 .43.359.779.8.779zM28.8 20.639a.79.79 0 00.801-.779v-5.907l1.034 1.007a.816.816 0 001.122-.01.764.764 0 00.01-1.091l-2.4-2.336c-.008-.008-.017-.01-.025-.016a.804.804 0 00-.235-.156c-.006 0-.014 0-.02-.005a.806.806 0 00-.253-.048.744.744 0 00-.08.005.771.771 0 00-.196.037.795.795 0 00-.32.183l-2.4 2.337a.764.764 0 00.01 1.091c.308.3.807.305 1.121.01l1.032-1.008v5.907c0 .43.358.779.8.779zM40 22.195a.79.79 0 00.799-.778v-5.908l1.034 1.007a.816.816 0 001.122-.01.764.764 0 00.01-1.091l-2.4-2.336c-.008-.007-.017-.01-.024-.016a.815.815 0 00-.236-.156c-.007 0-.014 0-.021-.004a.823.823 0 00-.252-.049.758.758 0 00-.08.005.774.774 0 00-.197.038c-.027.008-.052.015-.08.026a.806.806 0 00-.24.156l-2.4 2.336a.764.764 0 00.01 1.092c.308.3.807.304 1.121.01l1.033-1.008v5.908c0 .43.358.778.8.778zM7.2 22.195a.79.79 0 00.8-.778v-5.908l1.035 1.008a.816.816 0 001.12-.01.764.764 0 00.01-1.092l-2.4-2.336c-.006-.007-.016-.01-.023-.016a.815.815 0 00-.236-.155c-.006 0-.014 0-.021-.005a.794.794 0 00-.529-.006.77.77 0 00-.32.18l-2.4 2.337a.764.764 0 00.01 1.092c.308.3.808.304 1.121.009L6.4 15.509v5.908c0 .43.358.778.8.778z"/></g><defs><clipPath id="clip0"><path fill="#fff" d="M0 0h48v46.725H0z"/></clipPath></defs></svg>